<svg width="304" height="39" viewBox="0 0 304 39" fill="none" xmlns="http://www.w3.org/2000/svg">
<mask id="path-1-outside-1_32883_27" maskUnits="userSpaceOnUse" x="1.36011" y="3" width="300" height="36" fill="black">
<rect fill="white" x="1.36011" y="3" width="300" height="36"/>
<path d="M2.54761 14.5156H10.3601L11.0164 16.5469C11.308 16.2656 11.657 15.9844 12.0632 15.7031C12.4695 15.4219 12.9174 15.1719 13.407 14.9531C13.8966 14.7344 14.4226 14.5573 14.9851 14.4219C15.558 14.2865 16.1518 14.2188 16.7664 14.2188C17.9434 14.2188 19.0476 14.3906 20.0789 14.7344C21.1101 15.0781 22.0111 15.5885 22.782 16.2656C23.5528 16.9427 24.157 17.7812 24.5945 18.7812C25.0424 19.7812 25.2664 20.9427 25.2664 22.2656C25.2664 23.4844 25.0528 24.5885 24.6257 25.5781C24.2091 26.5573 23.6049 27.401 22.8132 28.1094C22.0216 28.8073 21.058 29.349 19.9226 29.7344C18.7976 30.1094 17.532 30.2969 16.1257 30.2969C15.0528 30.2969 14.0841 30.1719 13.2195 29.9219C12.3653 29.6615 11.6361 29.3021 11.032 28.8438V37.7344H2.54761V14.5156ZM11.032 26.7969C11.2924 27.0365 11.5841 27.224 11.907 27.3594C12.2299 27.4948 12.5528 27.5625 12.8757 27.5625C13.3966 27.5625 13.8757 27.4688 14.3132 27.2812C14.7611 27.0833 15.1466 26.7812 15.4695 26.375C15.8028 25.9688 16.058 25.4531 16.2351 24.8281C16.4226 24.1927 16.5164 23.4323 16.5164 22.5469C16.5164 21.651 16.4278 20.8854 16.2507 20.25C16.0841 19.6146 15.8497 19.099 15.5476 18.7031C15.2455 18.2969 14.8861 18 14.4695 17.8125C14.0528 17.625 13.5945 17.5312 13.0945 17.5312C12.6986 17.5312 12.3236 17.6042 11.9695 17.75C11.6153 17.8854 11.3028 18.0729 11.032 18.3125V26.7969ZM54.1857 25.125C54.1857 24.375 54.3524 23.6771 54.6857 23.0312C55.0191 22.3854 55.4982 21.8229 56.1232 21.3438C56.7482 20.8646 57.5034 20.4896 58.3889 20.2188C59.2743 19.9375 60.2639 19.7969 61.3576 19.7969C62.4514 19.7969 63.4722 19.9271 64.4201 20.1875C65.3784 20.4375 66.1805 20.7604 66.8264 21.1562V21.0312C66.8264 20.3021 66.743 19.6823 66.5764 19.1719C66.4201 18.6615 66.1753 18.2448 65.842 17.9219C65.5086 17.599 65.0816 17.3646 64.5607 17.2188C64.0503 17.0729 63.4461 17 62.7482 17C62.1128 17 61.4566 17.0573 60.7795 17.1719C60.1024 17.276 59.4774 17.4323 58.9045 17.6406L57.7639 15.5312C58.8993 15.0625 60.0711 14.7292 61.2795 14.5312C62.4982 14.3229 63.7534 14.2188 65.0451 14.2188C66.7014 14.2188 68.1649 14.3802 69.4357 14.7031C70.717 15.0156 71.7899 15.4896 72.6545 16.125C73.5295 16.75 74.1909 17.5417 74.6389 18.5C75.0868 19.4479 75.3107 20.5625 75.3107 21.8438V30H67.3889L66.8576 28.5C66.5451 28.7396 66.1753 28.9688 65.7482 29.1875C65.3211 29.4062 64.8524 29.599 64.342 29.7656C63.8316 29.9323 63.2899 30.0625 62.717 30.1562C62.1441 30.25 61.5451 30.2969 60.9201 30.2969C59.8993 30.2969 58.9722 30.1667 58.1389 29.9062C57.3159 29.6354 56.6128 29.2708 56.0295 28.8125C55.4461 28.3542 54.993 27.8125 54.6701 27.1875C54.3472 26.5521 54.1857 25.8646 54.1857 25.125ZM62.9357 24.7969C62.9357 25.3594 63.118 25.8177 63.4826 26.1719C63.8472 26.5156 64.3368 26.6875 64.9514 26.6875C65.2847 26.6875 65.6128 26.6354 65.9357 26.5312C66.2586 26.4167 66.5555 26.25 66.8264 26.0312V23.3906C66.3055 23.0781 65.7326 22.9219 65.1076 22.9219C64.3993 22.9219 63.8576 23.099 63.4826 23.4531C63.118 23.7969 62.9357 24.2448 62.9357 24.7969ZM106.105 4.20312H114.589V30H106.105V4.20312ZM144.524 22.1719C144.524 21.276 144.665 20.4583 144.946 19.7188C145.228 18.9792 145.613 18.3177 146.103 17.7344C146.603 17.1406 147.191 16.625 147.868 16.1875C148.545 15.75 149.28 15.3854 150.071 15.0938C150.863 14.8021 151.691 14.5833 152.556 14.4375C153.42 14.2917 154.295 14.2188 155.181 14.2188C156.347 14.2188 157.405 14.3385 158.353 14.5781C159.311 14.8073 160.16 15.125 160.899 15.5312C161.649 15.9375 162.295 16.4115 162.837 16.9531C163.389 17.4948 163.842 18.0729 164.196 18.6875C164.561 19.2917 164.827 19.9167 164.993 20.5625C165.17 21.2083 165.259 21.8385 165.259 22.4531L153.446 23.875C153.676 25.0312 154.134 25.9271 154.821 26.5625C155.509 27.1979 156.472 27.5156 157.712 27.5156C158.389 27.5156 159.019 27.4323 159.603 27.2656C160.196 27.099 160.66 26.8958 160.993 26.6562L162.243 28.8438C161.858 29.0417 161.436 29.2292 160.978 29.4062C160.53 29.5833 160.03 29.7396 159.478 29.875C158.936 30 158.332 30.099 157.665 30.1719C157.009 30.2552 156.285 30.2969 155.493 30.2969C153.597 30.2969 151.962 30.0781 150.587 29.6406C149.212 29.1927 148.071 28.599 147.165 27.8594C146.269 27.1094 145.603 26.2448 145.165 25.2656C144.738 24.2865 144.524 23.2552 144.524 22.1719ZM157.681 20.8594C157.681 19.5052 157.509 18.5208 157.165 17.9062C156.832 17.2917 156.332 16.9844 155.665 16.9844C155.321 16.9844 155.004 17.0677 154.712 17.2344C154.42 17.401 154.17 17.6615 153.962 18.0156C153.754 18.3698 153.587 18.8281 153.462 19.3906C153.337 19.9427 153.269 20.6146 153.259 21.4062L157.681 20.8594ZM195.647 17.0938H193.897V14.5156H195.647V9.35938H204.131V14.5156H208.209L206.616 17.0938H204.131V24.1094C204.131 25.1719 204.366 25.9896 204.834 26.5625C205.314 27.1354 205.996 27.4219 206.881 27.4219L205.913 29.5625C205.371 29.7917 204.793 29.9688 204.178 30.0938C203.574 30.2292 202.871 30.2969 202.069 30.2969C200.944 30.2969 199.975 30.1562 199.163 29.875C198.35 29.5833 197.683 29.1719 197.163 28.6406C196.642 28.1094 196.256 27.4583 196.006 26.6875C195.767 25.9167 195.647 25.0469 195.647 24.0781V17.0938ZM238.176 17.0938H236.426V14.5156H238.176V9.35938H246.66V14.5156H250.738L249.144 17.0938H246.66V24.1094C246.66 25.1719 246.894 25.9896 247.363 26.5625C247.842 27.1354 248.525 27.4219 249.41 27.4219L248.441 29.5625C247.9 29.7917 247.322 29.9688 246.707 30.0938C246.103 30.2292 245.4 30.2969 244.598 30.2969C243.473 30.2969 242.504 30.1562 241.691 29.875C240.879 29.5833 240.212 29.1719 239.691 28.6406C239.171 28.1094 238.785 27.4583 238.535 26.6875C238.296 25.9167 238.176 25.0469 238.176 24.0781V17.0938ZM278.798 22.1719C278.798 21.276 278.939 20.4583 279.22 19.7188C279.501 18.9792 279.887 18.3177 280.376 17.7344C280.876 17.1406 281.465 16.625 282.142 16.1875C282.819 15.75 283.553 15.3854 284.345 15.0938C285.137 14.8021 285.965 14.5833 286.829 14.4375C287.694 14.2917 288.569 14.2188 289.454 14.2188C290.621 14.2188 291.678 14.3385 292.626 14.5781C293.585 14.8073 294.434 15.125 295.173 15.5312C295.923 15.9375 296.569 16.4115 297.111 16.9531C297.663 17.4948 298.116 18.0729 298.47 18.6875C298.835 19.2917 299.1 19.9167 299.267 20.5625C299.444 21.2083 299.533 21.8385 299.533 22.4531L287.72 23.875C287.949 25.0312 288.408 25.9271 289.095 26.5625C289.783 27.1979 290.746 27.5156 291.986 27.5156C292.663 27.5156 293.293 27.4323 293.876 27.2656C294.47 27.099 294.934 26.8958 295.267 26.6562L296.517 28.8438C296.132 29.0417 295.71 29.2292 295.251 29.4062C294.803 29.5833 294.303 29.7396 293.751 29.875C293.21 30 292.606 30.099 291.939 30.1719C291.283 30.2552 290.559 30.2969 289.767 30.2969C287.871 30.2969 286.236 30.0781 284.861 29.6406C283.486 29.1927 282.345 28.599 281.439 27.8594C280.543 27.1094 279.876 26.2448 279.439 25.2656C279.012 24.2865 278.798 23.2552 278.798 22.1719ZM291.954 20.8594C291.954 19.5052 291.783 18.5208 291.439 17.9062C291.106 17.2917 290.606 16.9844 289.939 16.9844C289.595 16.9844 289.277 17.0677 288.986 17.2344C288.694 17.401 288.444 17.6615 288.236 18.0156C288.027 18.3698 287.861 18.8281 287.736 19.3906C287.611 19.9427 287.543 20.6146 287.533 21.4062L291.954 20.8594Z"/>
</mask>
<path d="M2.54761 14.5156H10.3601L11.0164 16.5469C11.308 16.2656 11.657 15.9844 12.0632 15.7031C12.4695 15.4219 12.9174 15.1719 13.407 14.9531C13.8966 14.7344 14.4226 14.5573 14.9851 14.4219C15.558 14.2865 16.1518 14.2188 16.7664 14.2188C17.9434 14.2188 19.0476 14.3906 20.0789 14.7344C21.1101 15.0781 22.0111 15.5885 22.782 16.2656C23.5528 16.9427 24.157 17.7812 24.5945 18.7812C25.0424 19.7812 25.2664 20.9427 25.2664 22.2656C25.2664 23.4844 25.0528 24.5885 24.6257 25.5781C24.2091 26.5573 23.6049 27.401 22.8132 28.1094C22.0216 28.8073 21.058 29.349 19.9226 29.7344C18.7976 30.1094 17.532 30.2969 16.1257 30.2969C15.0528 30.2969 14.0841 30.1719 13.2195 29.9219C12.3653 29.6615 11.6361 29.3021 11.032 28.8438V37.7344H2.54761V14.5156ZM11.032 26.7969C11.2924 27.0365 11.5841 27.224 11.907 27.3594C12.2299 27.4948 12.5528 27.5625 12.8757 27.5625C13.3966 27.5625 13.8757 27.4688 14.3132 27.2812C14.7611 27.0833 15.1466 26.7812 15.4695 26.375C15.8028 25.9688 16.058 25.4531 16.2351 24.8281C16.4226 24.1927 16.5164 23.4323 16.5164 22.5469C16.5164 21.651 16.4278 20.8854 16.2507 20.25C16.0841 19.6146 15.8497 19.099 15.5476 18.7031C15.2455 18.2969 14.8861 18 14.4695 17.8125C14.0528 17.625 13.5945 17.5312 13.0945 17.5312C12.6986 17.5312 12.3236 17.6042 11.9695 17.75C11.6153 17.8854 11.3028 18.0729 11.032 18.3125V26.7969ZM54.1857 25.125C54.1857 24.375 54.3524 23.6771 54.6857 23.0312C55.0191 22.3854 55.4982 21.8229 56.1232 21.3438C56.7482 20.8646 57.5034 20.4896 58.3889 20.2188C59.2743 19.9375 60.2639 19.7969 61.3576 19.7969C62.4514 19.7969 63.4722 19.9271 64.4201 20.1875C65.3784 20.4375 66.1805 20.7604 66.8264 21.1562V21.0312C66.8264 20.3021 66.743 19.6823 66.5764 19.1719C66.4201 18.6615 66.1753 18.2448 65.842 17.9219C65.5086 17.599 65.0816 17.3646 64.5607 17.2188C64.0503 17.0729 63.4461 17 62.7482 17C62.1128 17 61.4566 17.0573 60.7795 17.1719C60.1024 17.276 59.4774 17.4323 58.9045 17.6406L57.7639 15.5312C58.8993 15.0625 60.0711 14.7292 61.2795 14.5312C62.4982 14.3229 63.7534 14.2188 65.0451 14.2188C66.7014 14.2188 68.1649 14.3802 69.4357 14.7031C70.717 15.0156 71.7899 15.4896 72.6545 16.125C73.5295 16.75 74.1909 17.5417 74.6389 18.5C75.0868 19.4479 75.3107 20.5625 75.3107 21.8438V30H67.3889L66.8576 28.5C66.5451 28.7396 66.1753 28.9688 65.7482 29.1875C65.3211 29.4062 64.8524 29.599 64.342 29.7656C63.8316 29.9323 63.2899 30.0625 62.717 30.1562C62.1441 30.25 61.5451 30.2969 60.9201 30.2969C59.8993 30.2969 58.9722 30.1667 58.1389 29.9062C57.3159 29.6354 56.6128 29.2708 56.0295 28.8125C55.4461 28.3542 54.993 27.8125 54.6701 27.1875C54.3472 26.5521 54.1857 25.8646 54.1857 25.125ZM62.9357 24.7969C62.9357 25.3594 63.118 25.8177 63.4826 26.1719C63.8472 26.5156 64.3368 26.6875 64.9514 26.6875C65.2847 26.6875 65.6128 26.6354 65.9357 26.5312C66.2586 26.4167 66.5555 26.25 66.8264 26.0312V23.3906C66.3055 23.0781 65.7326 22.9219 65.1076 22.9219C64.3993 22.9219 63.8576 23.099 63.4826 23.4531C63.118 23.7969 62.9357 24.2448 62.9357 24.7969ZM106.105 4.20312H114.589V30H106.105V4.20312ZM144.524 22.1719C144.524 21.276 144.665 20.4583 144.946 19.7188C145.228 18.9792 145.613 18.3177 146.103 17.7344C146.603 17.1406 147.191 16.625 147.868 16.1875C148.545 15.75 149.28 15.3854 150.071 15.0938C150.863 14.8021 151.691 14.5833 152.556 14.4375C153.42 14.2917 154.295 14.2188 155.181 14.2188C156.347 14.2188 157.405 14.3385 158.353 14.5781C159.311 14.8073 160.16 15.125 160.899 15.5312C161.649 15.9375 162.295 16.4115 162.837 16.9531C163.389 17.4948 163.842 18.0729 164.196 18.6875C164.561 19.2917 164.827 19.9167 164.993 20.5625C165.17 21.2083 165.259 21.8385 165.259 22.4531L153.446 23.875C153.676 25.0312 154.134 25.9271 154.821 26.5625C155.509 27.1979 156.472 27.5156 157.712 27.5156C158.389 27.5156 159.019 27.4323 159.603 27.2656C160.196 27.099 160.66 26.8958 160.993 26.6562L162.243 28.8438C161.858 29.0417 161.436 29.2292 160.978 29.4062C160.53 29.5833 160.03 29.7396 159.478 29.875C158.936 30 158.332 30.099 157.665 30.1719C157.009 30.2552 156.285 30.2969 155.493 30.2969C153.597 30.2969 151.962 30.0781 150.587 29.6406C149.212 29.1927 148.071 28.599 147.165 27.8594C146.269 27.1094 145.603 26.2448 145.165 25.2656C144.738 24.2865 144.524 23.2552 144.524 22.1719ZM157.681 20.8594C157.681 19.5052 157.509 18.5208 157.165 17.9062C156.832 17.2917 156.332 16.9844 155.665 16.9844C155.321 16.9844 155.004 17.0677 154.712 17.2344C154.42 17.401 154.17 17.6615 153.962 18.0156C153.754 18.3698 153.587 18.8281 153.462 19.3906C153.337 19.9427 153.269 20.6146 153.259 21.4062L157.681 20.8594ZM195.647 17.0938H193.897V14.5156H195.647V9.35938H204.131V14.5156H208.209L206.616 17.0938H204.131V24.1094C204.131 25.1719 204.366 25.9896 204.834 26.5625C205.314 27.1354 205.996 27.4219 206.881 27.4219L205.913 29.5625C205.371 29.7917 204.793 29.9688 204.178 30.0938C203.574 30.2292 202.871 30.2969 202.069 30.2969C200.944 30.2969 199.975 30.1562 199.163 29.875C198.35 29.5833 197.683 29.1719 197.163 28.6406C196.642 28.1094 196.256 27.4583 196.006 26.6875C195.767 25.9167 195.647 25.0469 195.647 24.0781V17.0938ZM238.176 17.0938H236.426V14.5156H238.176V9.35938H246.66V14.5156H250.738L249.144 17.0938H246.66V24.1094C246.66 25.1719 246.894 25.9896 247.363 26.5625C247.842 27.1354 248.525 27.4219 249.41 27.4219L248.441 29.5625C247.9 29.7917 247.322 29.9688 246.707 30.0938C246.103 30.2292 245.4 30.2969 244.598 30.2969C243.473 30.2969 242.504 30.1562 241.691 29.875C240.879 29.5833 240.212 29.1719 239.691 28.6406C239.171 28.1094 238.785 27.4583 238.535 26.6875C238.296 25.9167 238.176 25.0469 238.176 24.0781V17.0938ZM278.798 22.1719C278.798 21.276 278.939 20.4583 279.22 19.7188C279.501 18.9792 279.887 18.3177 280.376 17.7344C280.876 17.1406 281.465 16.625 282.142 16.1875C282.819 15.75 283.553 15.3854 284.345 15.0938C285.137 14.8021 285.965 14.5833 286.829 14.4375C287.694 14.2917 288.569 14.2188 289.454 14.2188C290.621 14.2188 291.678 14.3385 292.626 14.5781C293.585 14.8073 294.434 15.125 295.173 15.5312C295.923 15.9375 296.569 16.4115 297.111 16.9531C297.663 17.4948 298.116 18.0729 298.47 18.6875C298.835 19.2917 299.1 19.9167 299.267 20.5625C299.444 21.2083 299.533 21.8385 299.533 22.4531L287.72 23.875C287.949 25.0312 288.408 25.9271 289.095 26.5625C289.783 27.1979 290.746 27.5156 291.986 27.5156C292.663 27.5156 293.293 27.4323 293.876 27.2656C294.47 27.099 294.934 26.8958 295.267 26.6562L296.517 28.8438C296.132 29.0417 295.71 29.2292 295.251 29.4062C294.803 29.5833 294.303 29.7396 293.751 29.875C293.21 30 292.606 30.099 291.939 30.1719C291.283 30.2552 290.559 30.2969 289.767 30.2969C287.871 30.2969 286.236 30.0781 284.861 29.6406C283.486 29.1927 282.345 28.599 281.439 27.8594C280.543 27.1094 279.876 26.2448 279.439 25.2656C279.012 24.2865 278.798 23.2552 278.798 22.1719ZM291.954 20.8594C291.954 19.5052 291.783 18.5208 291.439 17.9062C291.106 17.2917 290.606 16.9844 289.939 16.9844C289.595 16.9844 289.277 17.0677 288.986 17.2344C288.694 17.401 288.444 17.6615 288.236 18.0156C288.027 18.3698 287.861 18.8281 287.736 19.3906C287.611 19.9427 287.543 20.6146 287.533 21.4062L291.954 20.8594Z" fill="white"/>
<path d="M2.54761 14.5156V13.5156H1.54761V14.5156H2.54761ZM10.3601 14.5156L11.3117 14.2082L11.0879 13.5156H10.3601V14.5156ZM11.0164 16.5469L10.0648 16.8543L10.5573 18.3787L11.7105 17.2667L11.0164 16.5469ZM14.9851 14.4219L14.7551 13.4487L14.7511 13.4497L14.9851 14.4219ZM24.5945 18.7812L23.6783 19.1821L23.6819 19.19L24.5945 18.7812ZM24.6257 25.5781L23.7076 25.1819L23.7056 25.1866L24.6257 25.5781ZM22.8132 28.1094L23.4745 28.8595L23.48 28.8546L22.8132 28.1094ZM19.9226 29.7344L20.2388 30.6831L20.244 30.6813L19.9226 29.7344ZM13.2195 29.9219L12.9279 30.8784L12.9348 30.8805L12.9417 30.8825L13.2195 29.9219ZM11.032 28.8438L11.6364 28.0471L10.032 26.8299V28.8438H11.032ZM11.032 37.7344V38.7344H12.032V37.7344H11.032ZM2.54761 37.7344H1.54761V38.7344H2.54761V37.7344ZM11.032 26.7969H10.032V27.2357L10.3549 27.5328L11.032 26.7969ZM14.3132 27.2812L14.7072 28.2005L14.7174 28.1959L14.3132 27.2812ZM15.4695 26.375L14.6964 25.7407L14.6915 25.7467L14.6867 25.7528L15.4695 26.375ZM16.2351 24.8281L15.2759 24.5451L15.273 24.5555L16.2351 24.8281ZM16.2507 20.25L15.2835 20.5037L15.2854 20.5111L15.2874 20.5185L16.2507 20.25ZM15.5476 18.7031L14.7451 19.2999L14.7527 19.3098L15.5476 18.7031ZM11.9695 17.75L12.3266 18.6841L12.3385 18.6795L12.3502 18.6747L11.9695 17.75ZM11.032 18.3125L10.3694 17.5635L10.032 17.862V18.3125H11.032ZM2.54761 15.5156H10.3601V13.5156H2.54761V15.5156ZM9.40854 14.8231L10.0648 16.8543L11.9679 16.2394L11.3117 14.2082L9.40854 14.8231ZM11.7105 17.2667C11.956 17.03 12.2613 16.7823 12.6324 16.5253L11.494 14.8809C11.0527 15.1865 10.66 15.5013 10.3222 15.827L11.7105 17.2667ZM12.6324 16.5253C12.9838 16.2821 13.377 16.0618 13.8149 15.8661L12.999 14.0401C12.4578 14.282 11.9552 14.5617 11.494 14.8809L12.6324 16.5253ZM13.8149 15.8661C14.2443 15.6743 14.7117 15.5163 15.2192 15.3941L14.7511 13.4497C14.1335 13.5983 13.5488 13.7945 12.999 14.0401L13.8149 15.8661ZM15.2151 15.3951C15.7094 15.2782 16.2258 15.2188 16.7664 15.2188V13.2188C16.0777 13.2188 15.4066 13.2947 14.7551 13.4487L15.2151 15.3951ZM16.7664 15.2188C17.8449 15.2188 18.8415 15.376 19.7626 15.6831L20.3951 13.7857C19.2538 13.4053 18.042 13.2188 16.7664 13.2188V15.2188ZM19.7626 15.6831C20.6749 15.9872 21.4573 16.4331 22.122 17.0169L23.4419 15.5143C22.565 14.744 21.5453 14.1691 20.3951 13.7857L19.7626 15.6831ZM22.122 17.0169C22.7759 17.5913 23.2957 18.3075 23.6783 19.1821L25.5106 18.3804C25.0183 17.255 24.3298 16.2942 23.4419 15.5143L22.122 17.0169ZM23.6819 19.19C24.0615 20.0376 24.2664 21.055 24.2664 22.2656H26.2664C26.2664 20.8305 26.0233 19.5249 25.5071 18.3725L23.6819 19.19ZM24.2664 22.2656C24.2664 23.3659 24.074 24.3328 23.7076 25.1819L25.5439 25.9744C26.0316 24.8443 26.2664 23.6029 26.2664 22.2656H24.2664ZM23.7056 25.1866C23.3463 26.0309 22.8285 26.7538 22.1464 27.3641L23.48 28.8546C24.3813 28.0482 25.0719 27.0837 25.5459 25.9697L23.7056 25.1866ZM22.1519 27.3592C21.472 27.9586 20.6284 28.4388 19.6012 28.7874L20.244 30.6813C21.4877 30.2592 22.5711 29.6559 23.4745 28.8595L22.1519 27.3592ZM19.6064 28.7857C18.6003 29.1211 17.4439 29.2969 16.1257 29.2969V31.2969C17.62 31.2969 18.9949 31.0977 20.2388 30.6831L19.6064 28.7857ZM16.1257 29.2969C15.1293 29.2969 14.2562 29.1807 13.4973 28.9612L12.9417 30.8825C13.9119 31.1631 14.9763 31.2969 16.1257 31.2969V29.2969ZM13.5111 28.9653C12.7502 28.7334 12.1315 28.4227 11.6364 28.0471L10.4276 29.6404C11.1408 30.1815 11.9804 30.5896 12.9279 30.8784L13.5111 28.9653ZM10.032 28.8438V37.7344H12.032V28.8438H10.032ZM11.032 36.7344H2.54761V38.7344H11.032V36.7344ZM3.54761 37.7344V14.5156H1.54761V37.7344H3.54761ZM10.3549 27.5328C10.6997 27.85 11.0894 28.1009 11.5203 28.2816L12.2937 26.4372C12.0788 26.347 11.8851 26.2229 11.709 26.0609L10.3549 27.5328ZM11.5203 28.2816C11.9552 28.464 12.4092 28.5625 12.8757 28.5625V26.5625C12.6965 26.5625 12.5046 26.5256 12.2937 26.4372L11.5203 28.2816ZM12.8757 28.5625C13.5191 28.5625 14.1339 28.4461 14.7072 28.2004L13.9193 26.3621C13.6176 26.4914 13.274 26.5625 12.8757 26.5625V28.5625ZM14.7174 28.1959C15.3222 27.9287 15.8349 27.5224 16.2523 26.9972L14.6867 25.7528C14.4582 26.0401 14.2001 26.238 13.9091 26.3666L14.7174 28.1959ZM16.2426 27.0093C16.6811 26.4748 16.9913 25.8276 17.1972 25.1007L15.273 24.5555C15.1248 25.0786 14.9245 25.4627 14.6964 25.7407L16.2426 27.0093ZM17.1942 25.1111C17.4162 24.3589 17.5164 23.4981 17.5164 22.5469H15.5164C15.5164 23.3665 15.429 24.0265 15.276 24.5451L17.1942 25.1111ZM17.5164 22.5469C17.5164 21.5904 17.4224 20.7292 17.214 19.9815L15.2874 20.5185C15.4332 21.0416 15.5164 21.7117 15.5164 22.5469H17.5164ZM17.218 19.9963C17.028 19.2717 16.746 18.6251 16.3426 18.0965L14.7527 19.3098C14.9534 19.5728 15.1402 19.9574 15.2835 20.5037L17.218 19.9963ZM16.3501 18.1064C15.9575 17.5785 15.4682 17.1654 14.8798 16.9006L14.0591 18.7244C14.3041 18.8346 14.5335 19.0153 14.7451 19.2998L16.3501 18.1064ZM14.8798 16.9006C14.3224 16.6497 13.7225 16.5312 13.0945 16.5312V18.5312C13.4665 18.5312 13.7832 18.6003 14.0591 18.7244L14.8798 16.9006ZM13.0945 16.5312C12.5725 16.5312 12.0677 16.6281 11.5887 16.8253L12.3502 18.6747C12.5796 18.5802 12.8248 18.5312 13.0945 18.5312V16.5312ZM11.6123 16.8159C11.1516 16.9921 10.7344 17.2406 10.3694 17.5635L11.6946 19.0615C11.8712 18.9052 12.079 18.7787 12.3266 18.6841L11.6123 16.8159ZM10.032 18.3125V26.7969H12.032V18.3125H10.032ZM58.3889 20.2188L58.6814 21.1751L58.6916 21.1718L58.3889 20.2188ZM64.4201 20.1875L64.1552 21.1519L64.1677 21.1551L64.4201 20.1875ZM66.8264 21.1562L66.3038 22.0089L67.8264 22.942V21.1562H66.8264ZM66.5764 19.1719L65.6202 19.4646L65.6229 19.4735L65.6257 19.4823L66.5764 19.1719ZM64.5607 17.2188L64.286 18.1803L64.2911 18.1817L64.5607 17.2188ZM60.7795 17.1719L60.9315 18.1602L60.9389 18.1591L60.9463 18.1579L60.7795 17.1719ZM58.9045 17.6406L58.0248 18.1163L58.4353 18.8753L59.2462 18.5804L58.9045 17.6406ZM57.7639 15.5312L57.3823 14.6069L56.3562 15.0305L56.8842 16.0069L57.7639 15.5312ZM61.2795 14.5312L61.4411 15.5181L61.448 15.517L61.2795 14.5312ZM69.4357 14.7031L69.1894 15.6724L69.1988 15.6746L69.4357 14.7031ZM72.6545 16.125L72.0622 16.9309L72.0732 16.9387L72.6545 16.125ZM74.6389 18.5L73.7329 18.9234L73.7347 18.9272L74.6389 18.5ZM75.3107 30V31H76.3107V30H75.3107ZM67.3889 30L66.4462 30.3338L66.6822 31H67.3889V30ZM66.8576 28.5L67.8002 28.1662L67.341 26.8694L66.2492 27.7064L66.8576 28.5ZM58.1389 29.9062L57.8262 30.8561L57.8334 30.8585L57.8406 30.8607L58.1389 29.9062ZM54.6701 27.1875L53.7786 27.6406L53.7817 27.6465L54.6701 27.1875ZM63.4826 26.1719L62.7858 26.8892L62.7912 26.8943L62.7966 26.8995L63.4826 26.1719ZM65.9357 26.5312L66.2427 27.483L66.2565 27.4785L66.2701 27.4737L65.9357 26.5312ZM66.8264 26.0312L67.4547 26.8092L67.8264 26.509V26.0312H66.8264ZM66.8264 23.3906H67.8264V22.8244L67.3409 22.5331L66.8264 23.3906ZM63.4826 23.4531L64.1686 24.1807L64.1692 24.1801L63.4826 23.4531ZM55.1857 25.125C55.1857 24.5293 55.3166 23.9893 55.5744 23.4899L53.7971 22.5726C53.3882 23.3649 53.1857 24.2207 53.1857 25.125H55.1857ZM55.5744 23.4899C55.8346 22.9857 56.2137 22.5345 56.7317 22.1374L55.5148 20.5501C54.7828 21.1113 54.2035 21.7852 53.7971 22.5726L55.5744 23.4899ZM56.7317 22.1374C57.2469 21.7424 57.8905 21.4169 58.6814 21.175L58.0964 19.2625C57.1164 19.5622 56.2496 19.9868 55.5148 20.5501L56.7317 22.1374ZM58.6916 21.1718C59.4635 20.9266 60.3489 20.7969 61.3576 20.7969V18.7969C60.1789 18.7969 59.085 18.9484 58.0861 19.2657L58.6916 21.1718ZM61.3576 20.7969C62.3718 20.7969 63.3027 20.9176 64.1552 21.1518L64.685 19.2232C63.6417 18.9366 62.5309 18.7969 61.3576 18.7969V20.7969ZM64.1677 21.1551C65.0583 21.3875 65.7631 21.6774 66.3038 22.0089L67.3489 20.3036C66.598 19.8434 65.6986 19.4875 64.6725 19.2199L64.1677 21.1551ZM67.8264 21.1562V21.0312H65.8264V21.1562H67.8264ZM67.8264 21.0312C67.8264 20.2317 67.7357 19.5008 67.527 18.8615L65.6257 19.4823C65.7503 19.8638 65.8264 20.3724 65.8264 21.0312H67.8264ZM67.5326 18.8792C67.3343 18.2317 67.0096 17.6607 66.5378 17.2036L65.1462 18.6401C65.341 18.8288 65.5059 19.0912 65.6202 19.4646L67.5326 18.8792ZM66.5378 17.2036C66.0666 16.7471 65.4848 16.439 64.8304 16.2558L64.2911 18.1817C64.6784 18.2901 64.9507 18.4508 65.1462 18.6401L66.5378 17.2036ZM64.8355 16.2572C64.2127 16.0793 63.5117 16 62.7482 16V18C63.3806 18 63.8879 18.0665 64.286 18.1803L64.8355 16.2572ZM62.7482 16C62.0526 16 61.3405 16.0627 60.6126 16.1859L60.9463 18.1579C61.5727 18.0519 62.173 18 62.7482 18V16ZM60.6274 16.1835C59.8935 16.2964 59.2041 16.4676 58.5627 16.7008L59.2462 18.5804C59.7506 18.397 60.3113 18.2557 60.9315 18.1602L60.6274 16.1835ZM59.7841 17.165L58.6435 15.0556L56.8842 16.0069L58.0248 18.1163L59.7841 17.165ZM58.1455 16.4556C59.2104 16.0159 60.3085 15.7036 61.4411 15.5181L61.1178 13.5444C59.8338 13.7547 58.5881 14.1091 57.3823 14.6069L58.1455 16.4556ZM61.448 15.517C62.6086 15.3185 63.8074 15.2188 65.0451 15.2188V13.2188C63.6995 13.2188 62.3878 13.3273 61.111 13.5455L61.448 15.517ZM65.0451 15.2188C66.639 15.2188 68.017 15.3744 69.1895 15.6723L69.682 13.7339C68.3128 13.386 66.7637 13.2188 65.0451 13.2188V15.2188ZM69.1988 15.6746C70.3804 15.9628 71.3254 16.3892 72.0623 16.9308L73.2467 15.3192C72.2544 14.59 71.0536 14.0684 69.6727 13.7316L69.1988 15.6746ZM72.0732 16.9387C72.8107 17.4655 73.3591 18.1236 73.7329 18.9234L75.5448 18.0766C75.0228 16.9597 74.2483 16.0345 73.2357 15.3113L72.0732 16.9387ZM73.7347 18.9272C74.1071 19.7153 74.3107 20.6781 74.3107 21.8438H76.3107C76.3107 20.4469 76.0665 19.1806 75.543 18.0728L73.7347 18.9272ZM74.3107 21.8438V30H76.3107V21.8438H74.3107ZM75.3107 29H67.3889V31H75.3107V29ZM68.3315 29.6662L67.8002 28.1662L65.915 28.8338L66.4462 30.3338L68.3315 29.6662ZM66.2492 27.7064C65.9935 27.9024 65.6769 28.1005 65.2924 28.2975L66.2041 30.0775C66.6737 29.837 67.0967 29.5768 67.466 29.2936L66.2492 27.7064ZM65.2924 28.2975C64.9172 28.4896 64.4978 28.6628 64.0316 28.815L64.6524 30.7162C65.207 30.5351 65.7251 30.3229 66.2041 30.0775L65.2924 28.2975ZM64.0316 28.815C63.5735 28.9646 63.082 29.0832 62.5555 29.1694L62.8785 31.1431C63.4978 31.0418 64.0896 30.9 64.6524 30.7162L64.0316 28.815ZM62.5555 29.1694C62.0398 29.2538 61.4951 29.2969 60.9201 29.2969V31.2969C61.5951 31.2969 62.2483 31.2462 62.8785 31.1431L62.5555 29.1694ZM60.9201 29.2969C59.9837 29.2969 59.1592 29.1774 58.4371 28.9518L57.8406 30.8607C58.7852 31.1559 59.8148 31.2969 60.9201 31.2969V29.2969ZM58.4515 28.9564C57.7209 28.7159 57.1253 28.4017 56.6473 28.0262L55.4117 29.5988C56.1004 30.1399 56.911 30.5549 57.8262 30.8561L58.4515 28.9564ZM56.6473 28.0262C56.1703 27.6514 55.8122 27.2194 55.5585 26.7285L53.7817 27.6465C54.1739 28.4056 54.722 29.0569 55.4117 29.5988L56.6473 28.0262ZM55.5616 26.7345C55.3127 26.2448 55.1857 25.7133 55.1857 25.125H53.1857C53.1857 26.0159 53.3816 26.8594 53.7786 27.6405L55.5616 26.7345ZM61.9357 24.7969C61.9357 25.5979 62.2057 26.3257 62.7858 26.8892L64.1794 25.4546C64.0303 25.3098 63.9357 25.1209 63.9357 24.7969H61.9357ZM62.7966 26.8995C63.3867 27.4559 64.1426 27.6875 64.9514 27.6875V25.6875C64.531 25.6875 64.3076 25.5754 64.1686 25.4443L62.7966 26.8995ZM64.9514 27.6875C65.3908 27.6875 65.8224 27.6185 66.2427 27.483L65.6287 25.5795C65.4032 25.6523 65.1786 25.6875 64.9514 25.6875V27.6875ZM66.2701 27.4737C66.7014 27.3207 67.0973 27.0978 67.4547 26.8092L66.198 25.2533C66.0137 25.4022 65.8159 25.5127 65.6013 25.5888L66.2701 27.4737ZM67.8264 26.0312V23.3906H65.8264V26.0312H67.8264ZM67.3409 22.5331C66.6599 22.1246 65.9083 21.9219 65.1076 21.9219V23.9219C65.5569 23.9219 65.9511 24.0317 66.3119 24.2481L67.3409 22.5331ZM65.1076 21.9219C64.2405 21.9219 63.4166 22.14 62.796 22.7261L64.1692 24.1801C64.2986 24.0579 64.558 23.9219 65.1076 23.9219V21.9219ZM62.7966 22.7255C62.2101 23.2785 61.9357 24.0004 61.9357 24.7969H63.9357C63.9357 24.4891 64.026 24.3152 64.1686 24.1807L62.7966 22.7255ZM106.105 4.20312V3.20312H105.105V4.20312H106.105ZM114.589 4.20312H115.589V3.20312H114.589V4.20312ZM114.589 30V31H115.589V30H114.589ZM106.105 30H105.105V31H106.105V30ZM106.105 5.20312H114.589V3.20312H106.105V5.20312ZM113.589 4.20312V30H115.589V4.20312H113.589ZM114.589 29H106.105V31H114.589V29ZM107.105 30V4.20312H105.105V30H107.105ZM146.103 17.7344L145.338 17.0902L145.337 17.0915L146.103 17.7344ZM158.353 14.5781L158.108 15.5477L158.12 15.5507L158.353 14.5781ZM160.899 15.5312L160.418 16.4077L160.423 16.4105L160.899 15.5312ZM162.837 16.9531L162.13 17.6603L162.137 17.6669L162.837 16.9531ZM164.196 18.6875L163.33 19.1868L163.335 19.1955L163.34 19.2042L164.196 18.6875ZM164.993 20.5625L164.025 20.8124L164.027 20.8197L164.029 20.8269L164.993 20.5625ZM165.259 22.4531L165.378 23.446L166.259 23.34V22.4531H165.259ZM153.446 23.875L153.327 22.8822L152.256 23.0111L152.465 24.0694L153.446 23.875ZM154.821 26.5625L154.143 27.2969L154.821 26.5625ZM159.603 27.2656L159.332 26.3028L159.328 26.3041L159.603 27.2656ZM160.993 26.6562L161.861 26.1601L161.311 25.1965L160.41 25.8442L160.993 26.6562ZM162.243 28.8438L162.7 29.7333L163.63 29.2556L163.111 28.3476L162.243 28.8438ZM160.978 29.4062L160.617 28.4734L160.61 28.4763L160.978 29.4062ZM159.478 29.875L159.702 30.8495L159.716 30.8462L159.478 29.875ZM157.665 30.1719L157.556 29.1778L157.548 29.1787L157.539 29.1798L157.665 30.1719ZM150.587 29.6406L150.277 30.5915L150.284 30.5936L150.587 29.6406ZM147.165 27.8594L146.523 28.6262L146.533 28.6341L147.165 27.8594ZM145.165 25.2656L144.248 25.6654L144.252 25.6736L145.165 25.2656ZM157.681 20.8594L157.803 21.8518L158.681 21.7433V20.8594H157.681ZM157.165 17.9062L156.286 18.3831L156.292 18.3944L157.165 17.9062ZM153.462 19.3906L154.437 19.6115L154.438 19.6076L153.462 19.3906ZM153.259 21.4062L152.259 21.3931L152.244 22.5394L153.382 22.3987L153.259 21.4062ZM145.524 22.1719C145.524 21.3816 145.648 20.6863 145.881 20.0742L144.012 19.3633C143.682 20.2304 143.524 21.1705 143.524 22.1719H145.524ZM145.881 20.0742C146.124 19.4351 146.454 18.8716 146.869 18.3772L145.337 17.0915C144.772 17.7638 144.331 18.5233 144.012 19.3633L145.881 20.0742ZM146.868 18.3785C147.301 17.8636 147.814 17.4131 148.411 17.0274L147.326 15.3476C146.568 15.8369 145.904 16.4177 145.338 17.0902L146.868 18.3785ZM148.411 17.0274C149.023 16.6317 149.691 16.2995 150.417 16.0321L149.726 14.1554C148.868 14.4713 148.067 14.8683 147.326 15.3476L148.411 17.0274ZM150.417 16.0321C151.148 15.7627 151.916 15.5595 152.722 15.4236L152.389 13.4514C151.466 13.6072 150.578 13.8415 149.726 14.1554L150.417 16.0321ZM152.722 15.4236C153.531 15.2871 154.35 15.2188 155.181 15.2188V13.2188C154.24 13.2188 153.309 13.2962 152.389 13.4514L152.722 15.4236ZM155.181 15.2188C156.28 15.2188 157.253 15.3318 158.108 15.5476L158.598 13.6086C157.556 13.3453 156.415 13.2188 155.181 13.2188V15.2188ZM158.12 15.5507C159.006 15.7625 159.769 16.051 160.418 16.4077L161.381 14.6548C160.551 14.199 159.616 13.8521 158.585 13.6055L158.12 15.5507ZM160.423 16.4105C161.098 16.776 161.664 17.194 162.13 17.6602L163.544 16.246C162.927 15.6289 162.201 15.099 161.376 14.652L160.423 16.4105ZM162.137 17.6669C162.63 18.1507 163.025 18.6577 163.33 19.1868L165.063 18.1882C164.659 17.4881 164.148 16.8389 163.537 16.2393L162.137 17.6669ZM163.34 19.2042C163.658 19.7301 163.884 20.2657 164.025 20.8124L165.962 20.3126C165.769 19.5676 165.464 18.8532 165.053 18.1708L163.34 19.2042ZM164.029 20.8269C164.184 21.3943 164.259 21.9355 164.259 22.4531H166.259C166.259 21.7416 166.156 21.0224 165.958 20.2981L164.029 20.8269ZM165.139 21.4603L153.327 22.8822L153.566 24.8678L165.378 23.446L165.139 21.4603ZM152.465 24.0694C152.725 25.3788 153.264 26.4845 154.143 27.2969L155.5 25.8281C155.004 25.3697 154.626 24.6837 154.427 23.6806L152.465 24.0694ZM154.143 27.2969C155.068 28.1523 156.304 28.5156 157.712 28.5156V26.5156C156.641 26.5156 155.95 26.2435 155.5 25.8281L154.143 27.2969ZM157.712 28.5156C158.471 28.5156 159.195 28.4221 159.877 28.2271L159.328 26.3041C158.844 26.4425 158.307 26.5156 157.712 26.5156V28.5156ZM159.873 28.2284C160.528 28.0444 161.114 27.8012 161.577 27.4683L160.41 25.8442C160.206 25.9905 159.864 26.1535 159.332 26.3028L159.873 28.2284ZM160.125 27.1524L161.375 29.3399L163.111 28.3476L161.861 26.1601L160.125 27.1524ZM161.786 27.9542C161.436 28.134 161.047 28.3074 160.617 28.4735L161.338 30.339C161.825 30.1509 162.279 29.9493 162.7 29.7333L161.786 27.9542ZM160.61 28.4763C160.211 28.6341 159.755 28.7773 159.239 28.9038L159.716 30.8462C160.304 30.7019 160.848 30.5326 161.345 30.3362L160.61 28.4763ZM159.253 28.9006C158.756 29.0152 158.192 29.1083 157.556 29.1778L157.774 31.1659C158.472 31.0896 159.116 30.9848 159.702 30.8494L159.253 28.9006ZM157.539 29.1798C156.932 29.257 156.251 29.2969 155.493 29.2969V31.2969C156.319 31.2969 157.086 31.2535 157.791 31.1639L157.539 29.1798ZM155.493 29.2969C153.67 29.2969 152.142 29.086 150.89 28.6877L150.284 30.5936C151.782 31.0703 153.525 31.2969 155.493 31.2969V29.2969ZM150.897 28.6898C149.612 28.2714 148.588 27.7301 147.797 27.0846L146.533 28.6341C147.554 29.4679 148.812 30.114 150.277 30.5914L150.897 28.6898ZM147.807 27.0926C147.017 26.4312 146.448 25.6861 146.078 24.8577L144.252 25.6736C144.757 26.8034 145.521 27.7875 146.523 28.6261L147.807 27.0926ZM146.082 24.8658C145.71 24.0146 145.524 23.1196 145.524 22.1719H143.524C143.524 23.3908 143.766 24.5583 144.248 25.6654L146.082 24.8658ZM158.681 20.8594C158.681 19.4651 158.512 18.265 158.038 17.4181L156.292 18.3944C156.506 18.7767 156.681 19.5453 156.681 20.8594H158.681ZM158.044 17.4295C157.81 16.9977 157.489 16.6244 157.064 16.3629C156.636 16.0998 156.158 15.9844 155.665 15.9844V17.9844C155.839 17.9844 155.945 18.0226 156.016 18.0668C156.091 18.1126 156.187 18.2002 156.286 18.383L158.044 17.4295ZM155.665 15.9844C155.152 15.9844 154.662 16.111 154.216 16.3661L155.208 18.1026C155.345 18.0244 155.491 17.9844 155.665 17.9844V15.9844ZM154.216 16.3661C153.742 16.6366 153.377 17.0375 153.1 17.5086L154.824 18.5226C154.963 18.2854 155.098 18.1655 155.208 18.1026L154.216 16.3661ZM153.1 17.5086C152.822 17.9811 152.625 18.5469 152.486 19.1737L154.438 19.6076C154.549 19.1094 154.685 18.7585 154.824 18.5226L153.1 17.5086ZM152.487 19.1698C152.341 19.811 152.27 20.5569 152.259 21.3931L154.259 21.4194C154.269 20.6723 154.332 20.0744 154.437 19.6115L152.487 19.1698ZM153.382 22.3987L157.803 21.8518L157.558 19.8669L153.136 20.4138L153.382 22.3987ZM195.647 17.0938H196.647V16.0938H195.647V17.0938ZM193.897 17.0938H192.897V18.0938H193.897V17.0938ZM193.897 14.5156V13.5156H192.897V14.5156H193.897ZM195.647 14.5156V15.5156H196.647V14.5156H195.647ZM195.647 9.35938V8.35938H194.647V9.35938H195.647ZM204.131 9.35938H205.131V8.35938H204.131V9.35938ZM204.131 14.5156H203.131V15.5156H204.131V14.5156ZM208.209 14.5156L209.06 15.0414L210.003 13.5156H208.209V14.5156ZM206.616 17.0938V18.0938H207.173L207.466 17.6196L206.616 17.0938ZM204.131 17.0938V16.0938H203.131V17.0938H204.131ZM204.834 26.5625L204.06 27.1958L204.067 27.2041L204.834 26.5625ZM206.881 27.4219L207.792 27.8342L208.432 26.4219H206.881V27.4219ZM205.913 29.5625L206.302 30.4835L206.662 30.3311L206.824 29.9748L205.913 29.5625ZM204.178 30.0938L203.979 29.1138L203.969 29.1158L203.96 29.118L204.178 30.0938ZM199.163 29.875L198.825 30.8163L198.835 30.82L199.163 29.875ZM196.006 26.6875L195.051 26.9843L195.055 26.996L196.006 26.6875ZM195.647 16.0938H193.897V18.0938H195.647V16.0938ZM194.897 17.0938V14.5156H192.897V17.0938H194.897ZM193.897 15.5156H195.647V13.5156H193.897V15.5156ZM196.647 14.5156V9.35938H194.647V14.5156H196.647ZM195.647 10.3594H204.131V8.35938H195.647V10.3594ZM203.131 9.35938V14.5156H205.131V9.35938H203.131ZM204.131 15.5156H208.209V13.5156H204.131V15.5156ZM207.359 13.9898L205.765 16.5679L207.466 17.6196L209.06 15.0414L207.359 13.9898ZM206.616 16.0938H204.131V18.0938H206.616V16.0938ZM203.131 17.0938V24.1094H205.131V17.0938H203.131ZM203.131 24.1094C203.131 25.3045 203.394 26.3806 204.061 27.1957L205.608 25.9293C205.338 25.5986 205.131 25.0392 205.131 24.1094H203.131ZM204.067 27.2041C204.772 28.047 205.761 28.4219 206.881 28.4219V26.4219C206.231 26.4219 205.855 26.2238 205.602 25.9209L204.067 27.2041ZM205.97 27.0096L205.002 29.1502L206.824 29.9748L207.792 27.8342L205.97 27.0096ZM205.523 28.6415C205.047 28.8431 204.533 29.0012 203.979 29.1138L204.378 31.0737C205.053 30.9363 205.695 30.7402 206.302 30.4835L205.523 28.6415ZM203.96 29.118C203.445 29.2334 202.818 29.2969 202.069 29.2969V31.2969C202.924 31.2969 203.704 31.225 204.397 31.0695L203.96 29.118ZM202.069 29.2969C201.023 29.2969 200.17 29.1656 199.49 28.93L198.835 30.82C199.78 31.1469 200.865 31.2969 202.069 31.2969V29.2969ZM199.5 28.9338C198.807 28.685 198.276 28.3481 197.877 27.9406L196.449 29.3407C197.091 29.9957 197.893 30.4817 198.825 30.8162L199.5 28.9338ZM197.877 27.9406C197.474 27.5293 197.164 27.0161 196.958 26.379L195.055 26.996C195.348 27.9006 195.81 28.6894 196.449 29.3407L197.877 27.9406ZM196.961 26.3907C196.757 25.7329 196.647 24.9657 196.647 24.0781H194.647C194.647 25.128 194.777 26.1004 195.051 26.9843L196.961 26.3907ZM196.647 24.0781V17.0938H194.647V24.0781H196.647ZM238.176 17.0938H239.176V16.0938H238.176V17.0938ZM236.426 17.0938H235.426V18.0938H236.426V17.0938ZM236.426 14.5156V13.5156H235.426V14.5156H236.426ZM238.176 14.5156V15.5156H239.176V14.5156H238.176ZM238.176 9.35938V8.35938H237.176V9.35938H238.176ZM246.66 9.35938H247.66V8.35938H246.66V9.35938ZM246.66 14.5156H245.66V15.5156H246.66V14.5156ZM250.738 14.5156L251.589 15.0414L252.532 13.5156H250.738V14.5156ZM249.144 17.0938V18.0938H249.702L249.995 17.6196L249.144 17.0938ZM246.66 17.0938V16.0938H245.66V17.0938H246.66ZM247.363 26.5625L246.589 27.1958L246.596 27.2041L247.363 26.5625ZM249.41 27.4219L250.321 27.8342L250.96 26.4219H249.41V27.4219ZM248.441 29.5625L248.831 30.4835L249.191 30.3311L249.352 29.9748L248.441 29.5625ZM246.707 30.0938L246.508 29.1138L246.498 29.1158L246.488 29.118L246.707 30.0938ZM241.691 29.875L241.353 30.8163L241.364 30.82L241.691 29.875ZM238.535 26.6875L237.58 26.9843L237.584 26.996L238.535 26.6875ZM238.176 16.0938H236.426V18.0938H238.176V16.0938ZM237.426 17.0938V14.5156H235.426V17.0938H237.426ZM236.426 15.5156H238.176V13.5156H236.426V15.5156ZM239.176 14.5156V9.35938H237.176V14.5156H239.176ZM238.176 10.3594H246.66V8.35938H238.176V10.3594ZM245.66 9.35938V14.5156H247.66V9.35938H245.66ZM246.66 15.5156H250.738V13.5156H246.66V15.5156ZM249.888 13.9898L248.294 16.5679L249.995 17.6196L251.589 15.0414L249.888 13.9898ZM249.144 16.0938H246.66V18.0938H249.144V16.0938ZM245.66 17.0938V24.1094H247.66V17.0938H245.66ZM245.66 24.1094C245.66 25.3045 245.922 26.3806 246.589 27.1957L248.137 25.9293C247.867 25.5986 247.66 25.0392 247.66 24.1094H245.66ZM246.596 27.2041C247.301 28.047 248.289 28.4219 249.41 28.4219V26.4219C248.76 26.4219 248.384 26.2238 248.13 25.9209L246.596 27.2041ZM248.499 27.0096L247.53 29.1502L249.352 29.9748L250.321 27.8342L248.499 27.0096ZM248.052 28.6415C247.575 28.8431 247.061 29.0012 246.508 29.1138L246.906 31.0737C247.582 30.9363 248.224 30.7402 248.831 30.4835L248.052 28.6415ZM246.488 29.118C245.973 29.2334 245.346 29.2969 244.598 29.2969V31.2969C245.453 31.2969 246.232 31.225 246.926 31.0695L246.488 29.118ZM244.598 29.2969C243.552 29.2969 242.699 29.1656 242.018 28.93L241.364 30.82C242.309 31.1469 243.394 31.2969 244.598 31.2969V29.2969ZM242.029 28.9338C241.336 28.685 240.805 28.3481 240.405 27.9406L238.977 29.3407C239.619 29.9957 240.422 30.4817 241.353 30.8162L242.029 28.9338ZM240.405 27.9406C240.002 27.5293 239.693 27.0161 239.486 26.379L237.584 26.996C237.877 27.9006 238.339 28.6894 238.977 29.3407L240.405 27.9406ZM239.49 26.3907C239.286 25.7329 239.176 24.9657 239.176 24.0781H237.176C237.176 25.128 237.305 26.1004 237.58 26.9843L239.49 26.3907ZM239.176 24.0781V17.0938H237.176V24.0781H239.176ZM280.376 17.7344L279.611 17.0902L279.61 17.0915L280.376 17.7344ZM292.626 14.5781L292.381 15.5477L292.394 15.5507L292.626 14.5781ZM295.173 15.5312L294.692 16.4077L294.697 16.4105L295.173 15.5312ZM297.111 16.9531L296.404 17.6603L296.41 17.6669L297.111 16.9531ZM298.47 18.6875L297.604 19.1868L297.609 19.1955L297.614 19.2042L298.47 18.6875ZM299.267 20.5625L298.299 20.8124L298.301 20.8197L298.303 20.8269L299.267 20.5625ZM299.533 22.4531L299.652 23.446L300.533 23.34V22.4531H299.533ZM287.72 23.875L287.601 22.8822L286.529 23.0111L286.739 24.0694L287.72 23.875ZM289.095 26.5625L288.416 27.2969L289.095 26.5625ZM293.876 27.2656L293.606 26.3028L293.602 26.3041L293.876 27.2656ZM295.267 26.6562L296.135 26.1601L295.585 25.1965L294.683 25.8442L295.267 26.6562ZM296.517 28.8438L296.974 29.7333L297.904 29.2556L297.385 28.3476L296.517 28.8438ZM295.251 29.4062L294.891 28.4734L294.884 28.4763L295.251 29.4062ZM293.751 29.875L293.976 30.8495L293.99 30.8462L293.751 29.875ZM291.939 30.1719L291.83 29.1778L291.821 29.1787L291.813 29.1798L291.939 30.1719ZM284.861 29.6406L284.551 30.5915L284.558 30.5936L284.861 29.6406ZM281.439 27.8594L280.797 28.6262L280.807 28.6341L281.439 27.8594ZM279.439 25.2656L278.522 25.6654L278.526 25.6736L279.439 25.2656ZM291.954 20.8594L292.077 21.8518L292.954 21.7433V20.8594H291.954ZM291.439 17.9062L290.56 18.3831L290.566 18.3944L291.439 17.9062ZM287.736 19.3906L288.711 19.6115L288.712 19.6076L287.736 19.3906ZM287.533 21.4062L286.533 21.3931L286.518 22.5394L287.655 22.3987L287.533 21.4062ZM279.798 22.1719C279.798 21.3816 279.922 20.6863 280.155 20.0742L278.285 19.3633C277.956 20.2304 277.798 21.1705 277.798 22.1719H279.798ZM280.155 20.0742C280.398 19.4351 280.727 18.8716 281.142 18.3772L279.61 17.0915C279.046 17.7638 278.605 18.5233 278.285 19.3633L280.155 20.0742ZM281.141 18.3785C281.575 17.8636 282.088 17.4131 282.685 17.0274L281.599 15.3476C280.842 15.8369 280.178 16.4177 279.611 17.0902L281.141 18.3785ZM282.685 17.0274C283.297 16.6317 283.965 16.2995 284.691 16.0321L283.999 14.1554C283.142 14.4713 282.341 14.8683 281.599 15.3476L282.685 17.0274ZM284.691 16.0321C285.422 15.7627 286.19 15.5595 286.996 15.4236L286.663 13.4514C285.74 13.6072 284.851 13.8415 283.999 14.1554L284.691 16.0321ZM286.996 15.4236C287.805 15.2871 288.624 15.2188 289.454 15.2188V13.2188C288.514 13.2188 287.583 13.2962 286.663 13.4514L286.996 15.4236ZM289.454 15.2188C290.554 15.2188 291.527 15.3318 292.381 15.5476L292.871 13.6086C291.83 13.3453 290.688 13.2188 289.454 13.2188V15.2188ZM292.394 15.5507C293.279 15.7625 294.042 16.051 294.692 16.4077L295.655 14.6548C294.825 14.199 293.89 13.8521 292.859 13.6055L292.394 15.5507ZM294.697 16.4105C295.372 16.776 295.937 17.194 296.404 17.6602L297.818 16.246C297.201 15.6289 296.475 15.099 295.65 14.652L294.697 16.4105ZM296.41 17.6669C296.903 18.1507 297.299 18.6577 297.604 19.1868L299.337 18.1882C298.933 17.4881 298.422 16.8389 297.811 16.2393L296.41 17.6669ZM297.614 19.2042C297.931 19.7301 298.158 20.2657 298.299 20.8124L300.235 20.3126C300.043 19.5676 299.738 18.8532 299.326 18.1708L297.614 19.2042ZM298.303 20.8269C298.458 21.3943 298.533 21.9355 298.533 22.4531H300.533C300.533 21.7416 300.43 21.0224 300.231 20.2981L298.303 20.8269ZM299.413 21.4603L287.601 22.8822L287.84 24.8678L299.652 23.446L299.413 21.4603ZM286.739 24.0694C286.999 25.3788 287.537 26.4845 288.416 27.2969L289.774 25.8281C289.278 25.3697 288.9 24.6837 288.701 23.6806L286.739 24.0694ZM288.416 27.2969C289.342 28.1523 290.578 28.5156 291.986 28.5156V26.5156C290.914 26.5156 290.223 26.2435 289.774 25.8281L288.416 27.2969ZM291.986 28.5156C292.745 28.5156 293.469 28.4221 294.151 28.2271L293.602 26.3041C293.117 26.4425 292.581 26.5156 291.986 26.5156V28.5156ZM294.147 28.2284C294.802 28.0444 295.387 27.8012 295.851 27.4683L294.683 25.8442C294.48 25.9905 294.138 26.1535 293.606 26.3028L294.147 28.2284ZM294.399 27.1524L295.649 29.3399L297.385 28.3476L296.135 26.1601L294.399 27.1524ZM296.06 27.9542C295.71 28.134 295.321 28.3074 294.891 28.4735L295.612 30.339C296.099 30.1509 296.553 29.9493 296.974 29.7333L296.06 27.9542ZM294.884 28.4763C294.485 28.6341 294.029 28.7773 293.513 28.9038L293.99 30.8462C294.578 30.7019 295.122 30.5326 295.619 30.3362L294.884 28.4763ZM293.526 28.9006C293.03 29.0152 292.465 29.1083 291.83 29.1778L292.048 31.1659C292.746 31.0896 293.389 30.9848 293.976 30.8494L293.526 28.9006ZM291.813 29.1798C291.206 29.257 290.524 29.2969 289.767 29.2969V31.2969C290.593 31.2969 291.36 31.2535 292.065 31.1639L291.813 29.1798ZM289.767 29.2969C287.944 29.2969 286.416 29.086 285.164 28.6877L284.558 30.5936C286.056 31.0703 287.799 31.2969 289.767 31.2969V29.2969ZM285.17 28.6898C283.886 28.2714 282.862 27.7301 282.071 27.0846L280.807 28.6341C281.828 29.4679 283.085 30.114 284.551 30.5914L285.17 28.6898ZM282.081 27.0926C281.291 26.4312 280.722 25.6861 280.352 24.8577L278.526 25.6736C279.031 26.8034 279.795 27.7875 280.797 28.6261L282.081 27.0926ZM280.355 24.8658C279.984 24.0146 279.798 23.1196 279.798 22.1719H277.798C277.798 23.3908 278.039 24.5583 278.522 25.6654L280.355 24.8658ZM292.954 20.8594C292.954 19.4651 292.785 18.265 292.312 17.4181L290.566 18.3944C290.78 18.7767 290.954 19.5453 290.954 20.8594H292.954ZM292.318 17.4295C292.084 16.9977 291.763 16.6244 291.337 16.3629C290.909 16.0998 290.431 15.9844 289.939 15.9844V17.9844C290.113 17.9844 290.218 18.0226 290.29 18.0668C290.365 18.1126 290.461 18.2002 290.56 18.383L292.318 17.4295ZM289.939 15.9844C289.425 15.9844 288.936 16.111 288.49 16.3661L289.482 18.1026C289.619 18.0244 289.765 17.9844 289.939 17.9844V15.9844ZM288.49 16.3661C288.016 16.6366 287.651 17.0375 287.374 17.5086L289.098 18.5226C289.237 18.2854 289.372 18.1655 289.482 18.1026L288.49 16.3661ZM287.374 17.5086C287.096 17.9811 286.899 18.5469 286.76 19.1737L288.712 19.6076C288.823 19.1094 288.959 18.7585 289.098 18.5226L287.374 17.5086ZM286.76 19.1698C286.615 19.811 286.544 20.5569 286.533 21.3931L288.533 21.4194C288.542 20.6723 288.606 20.0744 288.711 19.6115L286.76 19.1698ZM287.655 22.3987L292.077 21.8518L291.832 19.8669L287.41 20.4138L287.655 22.3987Z" fill="black" mask="url(#path-1-outside-1_32883_27)"/>
</svg>
